<svg xmlns="http://www.w3.org/2000/svg" xmlns:xlink="http://www.w3.org/1999/xlink" width="58" height="58" viewBox="0 0 58 58">
  <defs>
    <filter id="Rectangle_17409" x="0" y="0" width="58" height="58" filterUnits="userSpaceOnUse">
      <feOffset dy="3" input="SourceAlpha"/>
      <feGaussianBlur stdDeviation="3" result="blur"/>
      <feFlood flood-opacity="0.161"/>
      <feComposite operator="in" in2="blur"/>
      <feComposite in="SourceGraphic"/>
    </filter>
  </defs>
  <g id="Group_12098" data-name="Group 12098" transform="translate(-97 6)">
    <g transform="matrix(1, 0, 0, 1, 97, -6)" filter="url(#Rectangle_17409)">
      <rect id="Rectangle_17409-2" data-name="Rectangle 17409" width="40" height="40" rx="9" transform="translate(9 6)" fill="#4083ff"/>
    </g>
    <g id="noun-add-user-419165" transform="translate(19.075 -41.647)">
      <path id="Path_31750" data-name="Path 31750" d="M109.295,312.464v-1.9a.831.831,0,0,1,.821-.839h1.966V309a7.6,7.6,0,0,1-3.582-1.374c-.014.529-1.156.956-2.564.956s-2.55-.427-2.564-.956C100.153,310.112,98,307.216,98,313.1c0,1.613,4.3,2.389,7.921,2.389h.032a20.237,20.237,0,0,0,6.131-.836V313.3h-1.966a.831.831,0,0,1-.82-.839Z" transform="translate(0 -244.89)" fill="#fff"/>
      <path id="Path_31751" data-name="Path 31751" d="M195.139,59.36a6.58,6.58,0,0,0,1.243,2.107,4.706,4.706,0,0,0,.434.419c.041.035.081.073.123.106A2.5,2.5,0,0,0,200.3,62c.034-.027.067-.058.1-.086a4.591,4.591,0,0,0,.453-.433,6.59,6.59,0,0,0,1.259-2.128c.239-.071.49-.524.592-1.1.111-.629.006-1.178-.235-1.268-.011-.2-.03-.411-.059-.618-.1-1.78-.64-2.575-1.444-2.93a4.088,4.088,0,0,0-4.672-.017c-.885.372-1.464,1.257-1.5,3.356q-.008.1-.014.2c-.262.051-.382.621-.266,1.278.107.607.377,1.074.626,1.11Z" transform="translate(-92.672)" fill="#fff"/>
      <path id="Path_31752" data-name="Path 31752" d="M407.676,308.039h-2.563v-2.563a.233.233,0,0,0-.242-.223h-1.9a.233.233,0,0,0-.242.223v2.563h-2.562a.233.233,0,0,0-.223.242v1.9a.233.233,0,0,0,.223.242h2.563v2.563a.233.233,0,0,0,.242.223h1.9a.233.233,0,0,0,.242-.223v-2.563h2.563a.233.233,0,0,0,.223-.242v-1.9A.233.233,0,0,0,407.676,308.039Z" transform="translate(-290.048 -242.612)" fill="#fff"/>
    </g>
  </g>
</svg>
