<svg xmlns="http://www.w3.org/2000/svg" width="17.841" height="18.742" viewBox="0 0 17.841 18.742">
  <g id="billing_outline" data-name="billing outline" transform="translate(0.25 0.25)">
    <path id="Path_385" data-name="Path 385" d="M265.268,449.23a.38.38,0,0,0-.387.371v1.844a2.045,2.045,0,0,1-.1.606h9.985a2.082,2.082,0,0,0,1.4-.572,1.916,1.916,0,0,0,.6-1.343v-.905Z" transform="translate(-259.419 -433.809)" fill="none" stroke="#505050" stroke-width="0.5"/>
    <path id="Path_386" data-name="Path 386" d="M206.917,36.751a1.731,1.731,0,0,0-.554-1.256,1.883,1.883,0,0,0-1.321-.5H194.949a1.615,1.615,0,0,1,.082.5v17.14a.587.587,0,0,0,.185.433.639.639,0,0,0,.453.173.652.652,0,0,0,.449-.177.6.6,0,0,0,.189-.429V49.709a.689.689,0,0,1,.215-.5.75.75,0,0,1,.519-.206h9.876Zm-5.081,7.4h-4.619a.735.735,0,0,1-.576-.368.678.678,0,0,1,0-.664.735.735,0,0,1,.576-.368h4.619a.735.735,0,0,1,.576.368.678.678,0,0,1,0,.664A.735.735,0,0,1,201.837,44.152Zm0-2.906h-4.619a.735.735,0,0,1-.576-.368.678.678,0,0,1,0-.664.735.735,0,0,1,.576-.368h4.619a.736.736,0,0,1,.576.368.678.678,0,0,1,0,.664A.736.736,0,0,1,201.837,41.246Zm0-2.906h-4.619a.735.735,0,0,1-.576-.368.678.678,0,0,1,0-.664.735.735,0,0,1,.576-.368h4.619a.736.736,0,0,1,.576.368.678.678,0,0,1,0,.664A.735.735,0,0,1,201.837,38.341Zm2.873,8.717h-.55a.754.754,0,0,1-.564-.179.685.685,0,0,1,0-1.042.753.753,0,0,1,.564-.179h.55a.735.735,0,0,1,.576.368.678.678,0,0,1,0,.664.735.735,0,0,1-.576.368Zm0-2.906h-.55a.754.754,0,0,1-.564-.179.685.685,0,0,1,0-1.042.754.754,0,0,1,.564-.179h.55a.735.735,0,0,1,.576.368.678.678,0,0,1,0,.664.735.735,0,0,1-.576.368Zm0-2.906h-.55a.754.754,0,0,1-.564-.179.685.685,0,0,1,0-1.042.754.754,0,0,1,.564-.179h.55a.735.735,0,0,1,.576.368.678.678,0,0,1,0,.664.735.735,0,0,1-.576.368Zm0-2.906h-.55a.754.754,0,0,1-.564-.179.685.685,0,0,1,0-1.042.754.754,0,0,1,.564-.179h.55a.735.735,0,0,1,.576.368.678.678,0,0,1,0,.664.735.735,0,0,1-.576.368Z" transform="translate(-192.3 -34.992)" fill="none" stroke="#505050" stroke-width="0.5"/>
    <path id="Path_387" data-name="Path 387" d="M127.447,35h-.231a.513.513,0,0,0-.516.5v4.886h1.263V35.5a.513.513,0,0,0-.516-.5Z" transform="translate(-126.7 -35)" fill="none" stroke="#505050" stroke-width="0.5"/>
  </g>
</svg>
