<svg id="noun-time-3182946" xmlns="http://www.w3.org/2000/svg" width="21.251" height="17" viewBox="0 0 21.251 17">
  <path id="Path_462" data-name="Path 462" d="M100.243,70.008a8.492,8.492,0,0,0-8.379,9.917h-.829a.709.709,0,0,0,0,1.417h1.2a8.455,8.455,0,0,0,.655,1.414H89.618a.709.709,0,1,0,0,1.417h4.3a8.565,8.565,0,0,0,1.637,1.417H88.2a.709.709,0,1,0,0,1.418h12.042a8.5,8.5,0,0,0,0-17Zm0,1.417a7.082,7.082,0,1,1-7.086,7.083A7.072,7.072,0,0,1,100.243,71.425Z" transform="translate(-87.492 -70.008)"/>
  <path id="Path_463" data-name="Path 463" d="M301.379,139.767a.708.708,0,0,0-.7.716v4.557l-3.2,1.919h0a.708.708,0,1,0,.727,1.216l3.543-2.126h0a.708.708,0,0,0,.345-.607v-4.96a.708.708,0,0,0-.719-.716Z" transform="translate(-288.639 -136.943)"/>
</svg>
