<svg xmlns="http://www.w3.org/2000/svg" width="13" height="10" viewBox="0 0 13 10">
  <g id="noun-cloud-upload-1974264" transform="translate(-70.008 -86.91)">
    <path id="Path_31736" data-name="Path 31736" d="M81.017,89.824A3.656,3.656,0,0,0,77.6,86.91a3.457,3.457,0,0,0-2.939,1.766,1.752,1.752,0,0,0-1.2-.486,2.034,2.034,0,0,0-1.892,2.151,2.435,2.435,0,0,0,.07.58,3.172,3.172,0,0,0-1.633,2.859,2.96,2.96,0,0,0,2.752,3.13h7.006a3.486,3.486,0,0,0,3.242-3.686,3.719,3.719,0,0,0-1.991-3.4Z" transform="translate(0 0)"/>
    <path id="Path_31749" data-name="Path 31749" d="M289.927,249.216l-4.392,4.392-2.113-2.113.806-.806L285.535,252l3.586-3.586Z" transform="translate(-210.166 -157.859)" fill="#ececec" fill-rule="evenodd"/>
  </g>
</svg>
