<svg xmlns="http://www.w3.org/2000/svg" width="23.75" height="23.75" viewBox="0 0 23.75 23.75">
  <g id="Group_12024" data-name="Group 12024" transform="translate(-1319 -565)">
    <rect id="Rectangle_202" data-name="Rectangle 202" width="23.75" height="23.75" rx="4" transform="translate(1319 565)" fill="red"/>
    <g id="noun-delete-1076216" transform="translate(1324.955 570.955)">
      <path id="Path_464" data-name="Path 464" d="M141.277,69.521a2.11,2.11,0,0,0,2.145-2.013l.245-7.367h1.149a.3.3,0,1,0,0-.6H141.6v-.671a1.213,1.213,0,0,0-1.225-1.193h-2.328a1.213,1.213,0,0,0-1.226,1.193v.671h-3.232a.3.3,0,1,0,0,.6h1.149l.245,7.367a2.11,2.11,0,0,0,2.145,2.013Zm-3.845-10.648a.606.606,0,0,1,.613-.6h2.328a.606.606,0,0,1,.613.6v.671h-3.554Zm-1.823,8.6-.245-7.352h7.705l-.26,7.352a1.519,1.519,0,0,1-1.532,1.447h-4.136a1.509,1.509,0,0,1-1.532-1.447Z" transform="translate(-133.281 -57.68)" fill="#fff" stroke="#fff" stroke-width="0.5"/>
      <path id="Path_465" data-name="Path 465" d="M339.126,223.92a.326.326,0,0,0,.325-.326v-4.867a.325.325,0,1,0-.651,0v4.867a.326.326,0,0,0,.325.325Z" transform="translate(-333.198 -214.413)" fill="#fff" stroke="#fff" stroke-width="0.5"/>
      <path id="Path_466" data-name="Path 466" d="M271.926,223.92a.326.326,0,0,0,.326-.326v-4.867a.326.326,0,1,0-.651,0v4.867a.326.326,0,0,0,.326.325Z" transform="translate(-267.83 -214.413)" fill="#fff" stroke="#fff" stroke-width="0.5"/>
      <path id="Path_467" data-name="Path 467" d="M406.327,223.92a.326.326,0,0,0,.326-.326v-4.867a.325.325,0,1,0-.651,0v4.867a.326.326,0,0,0,.325.325Z" transform="translate(-398.567 -214.413)" fill="#fff" stroke="#fff" stroke-width="0.5"/>
    </g>
  </g>
</svg>
