<svg xmlns="http://www.w3.org/2000/svg" width="18.561" height="18.574" viewBox="0 0 18.561 18.574">
  <g id="Outline" transform="translate(-97.745 -27.735)">
    <path id="Path_470" data-name="Path 470" d="M248.142,385.17h1.324a.366.366,0,0,1,.341.341v.522a.341.341,0,0,1-.341.341h-1.324a.366.366,0,0,1-.341-.341v-.522A.341.341,0,0,1,248.142,385.17Z" transform="translate(-144.437 -344.373)" fill="none" stroke="#505050" stroke-width="0.5"/>
    <path id="Path_471" data-name="Path 471" d="M248.142,321.61h1.324a.366.366,0,0,1,.341.341v.522a.341.341,0,0,1-.341.341h-1.324a.366.366,0,0,1-.341-.341v-.522A.341.341,0,0,1,248.142,321.61Z" transform="translate(-144.437 -283.091)" fill="none" stroke="#505050" stroke-width="0.5"/>
    <path id="Path_472" data-name="Path 472" d="M157.812,385.17h1.324a.366.366,0,0,1,.341.341v.522a.341.341,0,0,1-.341.341h-1.324a.366.366,0,0,1-.341-.341v-.522A.341.341,0,0,1,157.812,385.17Z" transform="translate(-57.344 -344.373)" fill="none" stroke="#505050" stroke-width="0.5"/>
    <path id="Path_473" data-name="Path 473" d="M157.812,321.61h1.324a.366.366,0,0,1,.341.341v.522a.341.341,0,0,1-.341.341h-1.324a.366.366,0,0,1-.341-.341v-.522A.341.341,0,0,1,157.812,321.61Z" transform="translate(-57.344 -283.091)" fill="none" stroke="#505050" stroke-width="0.5"/>
    <path id="Path_474" data-name="Path 474" d="M248.142,258.05h1.324a.366.366,0,0,1,.341.341v.522a.341.341,0,0,1-.341.341h-1.324a.366.366,0,0,1-.341-.341v-.522A.341.341,0,0,1,248.142,258.05Z" transform="translate(-144.437 -221.808)" fill="none" stroke="#505050" stroke-width="0.5"/>
    <path id="Path_475" data-name="Path 475" d="M338.412,258.05h1.324a.366.366,0,0,1,.341.341v.522a.341.341,0,0,1-.341.341h-1.324a.366.366,0,0,1-.341-.341v-.522A.341.341,0,0,1,338.412,258.05Z" transform="translate(-231.473 -221.808)" fill="none" stroke="#505050" stroke-width="0.5"/>
    <path id="Path_476" data-name="Path 476" d="M362.764,297.127a4.371,4.371,0,1,1,3.085-1.28A4.365,4.365,0,0,1,362.764,297.127Zm0-7.826a3.466,3.466,0,1,0,2.447,1.015,3.461,3.461,0,0,0-2.447-1.015Z" transform="translate(-251.073 -251.069)" fill="none" stroke="#505050" stroke-width="0.5"/>
    <path id="Path_477" data-name="Path 477" d="M470.353,348.882h-2.3a.452.452,0,0,1-.451-.452v-1.844a.452.452,0,0,1,.9,0v1.393h1.844a.452.452,0,0,1,0,.9Z" transform="translate(-356.366 -306.737)" fill="none" stroke="#505050" stroke-width="0.5"/>
    <path id="Path_478" data-name="Path 478" d="M397.263,32.212a1,1,0,0,1-1-1V29a1,1,0,1,1,2.007,0v2.207a1,1,0,0,1-1,1Z" transform="translate(-287.577)" fill="none" stroke="#505050" stroke-width="0.5"/>
    <path id="Path_479" data-name="Path 479" d="M112.518,73.695h-.925v1.573a1.906,1.906,0,0,1-3.813,0V73.695h-3.592v1.573a1.906,1.906,0,0,1-3.813,0V73.695H99.45a1.457,1.457,0,0,0-1.455,1.455V86.588a1.457,1.457,0,0,0,1.455,1.455h7.5a5.342,5.342,0,0,1-.337-.9H99.45a.552.552,0,0,1-.552-.558V79.23h14.171v1.441a5.175,5.175,0,0,1,.9.335V75.15a1.457,1.457,0,0,0-1.455-1.455Z" transform="translate(0 -44.06)" fill="none" stroke="#505050" stroke-width="0.5"/>
    <path id="Path_480" data-name="Path 480" d="M190.623,32.212a1,1,0,0,1-1-1V29a1,1,0,1,1,2.007,0v2.207a1,1,0,0,1-1,1Z" transform="translate(-88.341)" fill="none" stroke="#505050" stroke-width="0.5"/>
  </g>
</svg>
