<svg xmlns="http://www.w3.org/2000/svg" xmlns:xlink="http://www.w3.org/1999/xlink" width="58" height="58" viewBox="0 0 58 58">
  <defs>
    <filter id="Rectangle_17409" x="0" y="0" width="58" height="58" filterUnits="userSpaceOnUse">
      <feOffset dy="3" input="SourceAlpha"/>
      <feGaussianBlur stdDeviation="3" result="blur"/>
      <feFlood flood-opacity="0.161"/>
      <feComposite operator="in" in2="blur"/>
      <feComposite in="SourceGraphic"/>
    </filter>
  </defs>
  <g id="Group_12098" data-name="Group 12098" transform="translate(-97 6)">
    <g transform="matrix(1, 0, 0, 1, 97, -6)" filter="url(#Rectangle_17409)">
      <rect id="Rectangle_17409-2" data-name="Rectangle 17409" width="40" height="40" rx="9" transform="translate(9 6)" fill="#fed745"/>
    </g>
    <g id="noun-queue-2367045" transform="translate(27.445 -63.601)">
      <path id="Path_31792" data-name="Path 31792" d="M157.841,74.718a2.481,2.481,0,1,1-2.481-2.481,2.481,2.481,0,0,1,2.481,2.481" transform="translate(-65.109)" fill="#fff"/>
      <path id="Path_31793" data-name="Path 31793" d="M93.8,177.609a2.67,2.67,0,0,0-2.389-2.328,3.018,3.018,0,0,1-1.164.215,2.916,2.916,0,0,1-1.164-.215,2.671,2.671,0,0,0-2.389,2.328l-.215,1.807H84.675a.674.674,0,1,0,0,1.348h11l.061-.551a3.354,3.354,0,0,1,.184-.8h-1.93Z" transform="translate(0 -97.407)" fill="#fff"/>
      <path id="Path_31794" data-name="Path 31794" d="M315.491,232.747a1.449,1.449,0,0,1-1.133-1.593l.276-2.144a3.517,3.517,0,0,1,2.788-3.033,2.578,2.578,0,0,0-1.715-.858,3.732,3.732,0,0,1-1.164.215,2.917,2.917,0,0,1-1.164-.215,2.669,2.669,0,0,0-2.359,2.328l-.276,2.144a.569.569,0,0,0,.429.613c.4.092.8.153,1.195.215l.276,5.024a.739.739,0,0,0,.735.7h2.3a.766.766,0,0,0,.551-.245l-.184-3.063C315.828,232.808,315.675,232.777,315.491,232.747Z" transform="translate(-214.335 -144.519)" fill="#fff"/>
      <path id="Path_31795" data-name="Path 31795" d="M336.805,125.952a2.558,2.558,0,0,0,1.195-.306,2.65,2.65,0,0,1-.03-.49,3.5,3.5,0,0,1,1.164-2.573,2.486,2.486,0,1,0-2.328,3.37Z" transform="translate(-236.63 -46.056)" fill="#fff"/>
      <path id="Path_31796" data-name="Path 31796" d="M397.873,263.018a1.431,1.431,0,0,1-1.133-1.593l.276-2.144a3.552,3.552,0,0,1,2.788-3.063,2.651,2.651,0,0,0-1.746-.858,3.545,3.545,0,0,1-1.133.215,3.019,3.019,0,0,1-1.164-.215h-.031a2.671,2.671,0,0,0-2.389,2.328l-.276,2.144a.569.569,0,0,0,.429.613,8.036,8.036,0,0,0,1.195.184l.306,5.055a.747.747,0,0,0,.766.7h2.3a.717.717,0,0,0,.551-.245l-.184-3.033q-.321-.046-.551-.092Z" transform="translate(-292.154 -173.106)" fill="#fff"/>
      <path id="Path_31797" data-name="Path 31797" d="M420.242,156.756a2.558,2.558,0,0,0,1.195-.306,2.788,2.788,0,0,1-.031-.521,3.382,3.382,0,0,1,1.164-2.543,2.481,2.481,0,0,0-4.809.858A2.5,2.5,0,0,0,420.242,156.756Z" transform="translate(-315.502 -75.176)" fill="#fff"/>
      <path id="Path_31798" data-name="Path 31798" d="M484.381,288.489a2.639,2.639,0,0,0-2.359-2.328,3.018,3.018,0,0,1-1.164.215,2.917,2.917,0,0,1-1.164-.215,2.669,2.669,0,0,0-2.359,2.328l-.276,2.144a.569.569,0,0,0,.429.613c.4.092.8.153,1.195.215l.276,5.024a.768.768,0,0,0,.766.7h2.3a.739.739,0,0,0,.735-.7l.276-5.024a11.938,11.938,0,0,0,1.195-.215.569.569,0,0,0,.429-.613Z" transform="translate(-371.554 -202.222)" fill="#fff"/>
      <path id="Path_31799" data-name="Path 31799" d="M505.6,185.6a2.481,2.481,0,1,1-2.481-2.481A2.481,2.481,0,0,1,505.6,185.6" transform="translate(-393.85 -104.818)" fill="#fff"/>
    </g>
  </g>
</svg>
