<svg xmlns="http://www.w3.org/2000/svg" width="90.341" height="90.341" viewBox="0 0 90.341 90.341">
  <g id="Group_467" data-name="Group 467" transform="translate(0 0)">
    <circle id="Ellipse_134" data-name="Ellipse 134" cx="31.958" cy="31.958" r="31.958" transform="translate(13.327 13.327)" fill="#c5c5c5"/>
    <g id="Path_481" data-name="Path 481" transform="translate(47.538 90.341) rotate(-138)" fill="none" stroke-dasharray="130 1000">
      <path d="M31.984,0A31.984,31.984,0,1,1,0,31.984,31.984,31.984,0,0,1,31.984,0Z" stroke="none"/>
      <path d="M 31.98416900634766 3.814697265625e-06 C 49.64853286743164 3.814697265625e-06 63.96833419799805 14.31980514526367 63.96833419799805 31.98416900634766 C 63.96833419799805 49.65297698974609 49.64008331298828 63.97554397583008 31.97017669677734 63.96833038330078 C 31.96484756469727 63.96832656860352 31.96128463745117 63.96832275390625 31.9559440612793 63.96831893920898 C 31.95124816894531 63.96831512451172 31.94607543945312 63.96831130981445 31.94138717651367 63.96830368041992 C 31.93605041503906 63.96829605102539 31.93239593505859 63.96829223632812 31.92706298828125 63.96828079223633 C 31.92279815673828 63.9682731628418 31.91637420654297 63.96826171875 31.9121208190918 63.96825408935547 C 31.90487670898438 63.96823501586914 31.90032577514648 63.96822738647461 31.89309310913086 63.96820449829102 C 31.88820648193359 63.96819305419922 31.88360214233398 63.96817779541016 31.87871551513672 63.96816253662109 C 31.87446594238281 63.96814727783203 31.8692626953125 63.96813201904297 31.86501312255859 63.96811294555664 C 31.86032104492188 63.96809768676758 31.85515213012695 63.96807861328125 31.8504524230957 63.96805953979492 C 31.84513854980469 63.96803665161133 31.84087371826172 63.968017578125 31.83554458618164 63.96799468994141 C 31.82893371582031 63.96796417236328 31.82376098632812 63.96793746948242 31.81717300415039 63.9679069519043 C 31.81717300415039 63.9679069519043 31.81649780273438 63.96790313720703 31.81649780273438 63.96790313720703 C 31.80926895141602 63.96786499023438 31.80544281005859 63.96784591674805 31.79819488525391 63.96780395507812 C 31.79394912719727 63.96777725219727 31.78741836547852 63.96773910522461 31.78317260742188 63.96771240234375 C 31.77783966064453 63.96768188476562 31.77361679077148 63.96765518188477 31.76829528808594 63.96761703491211 C 31.7640495300293 63.96759033203125 31.75818252563477 63.96755218505859 31.75393676757812 63.96752166748047 C 31.74860763549805 63.96748352050781 31.74472808837891 63.96745681762695 31.73941040039062 63.96741485595703 C 31.73389434814453 63.96737289428711 31.7292366027832 63.96733856201172 31.72371292114258 63.96729278564453 C 31.71775436401367 63.96724700927734 31.71224212646484 63.96720123291016 31.70629501342773 63.9671516418457 C 31.70096969604492 63.96710586547852 31.69657135009766 63.96706771850586 31.69125747680664 63.96701812744141 C 31.68656921386719 63.96697616577148 31.6816520690918 63.9669303894043 31.67696380615234 63.96688842773438 C 31.6716423034668 63.96683883666992 31.66802978515625 63.96680450439453 31.66270446777344 63.96675109863281 C 31.6584587097168 63.96670913696289 31.65288162231445 63.96665191650391 31.64863204956055 63.96660995483398 C 31.64141082763672 63.96653366088867 31.63740539550781 63.96649169921875 31.63018417358398 63.96641159057617 C 31.62594223022461 63.96636581420898 31.61930084228516 63.96629333496094 31.61506652832031 63.96624755859375 C 31.60974884033203 63.9661865234375 31.60630035400391 63.96614456176758 31.60098266601562 63.96608352661133 C 31.59673690795898 63.96603393554688 31.59077835083008 63.96596145629883 31.5865478515625 63.96591186523438 C 31.58274459838867 63.96586608886719 31.57940292358398 63.96582412719727 31.57560348510742 63.96577453613281 C 31.57560348510742 63.96577453613281 31.57242202758789 63.96573638916016 31.57242202758789 63.96573638916016 C 31.56735610961914 63.96567153930664 31.56331634521484 63.96562194824219 31.55824661254883 63.96555328369141 C 31.55824661254883 63.96555328369141 31.55789947509766 63.96554946899414 31.55789947509766 63.96554946899414 C 31.55131912231445 63.9654655456543 31.54465484619141 63.96537399291992 31.53805923461914 63.96528244018555 C 31.53273773193359 63.9652099609375 31.52885437011719 63.96515655517578 31.5235481262207 63.96508407592773 C 31.51886367797852 63.96501541137695 31.5140380859375 63.96494674682617 31.50936126708984 63.96487808227539 C 31.50467681884766 63.96480941772461 31.4997673034668 63.96473693847656 31.49509048461914 63.96466827392578 C 31.48977279663086 63.9645881652832 31.48654937744141 63.96453857421875 31.48123550415039 63.96445846557617 C 31.47509765625 63.96436309814453 31.4716796875 63.96430969238281 31.46554183959961 63.96421051025391 C 31.46067428588867 63.96413421630859 31.45345306396484 63.96401977539062 31.44858551025391 63.96393966674805 C 31.44327163696289 63.96385192871094 31.43855667114258 63.96377182006836 31.43324279785156 63.96368408203125 C 31.42856597900391 63.96360397338867 31.42387390136719 63.96352386474609 31.41919708251953 63.96344375610352 C 31.41389465332031 63.96335220336914 31.41011047363281 63.96328353881836 31.40478515625 63.96318817138672 C 31.3999137878418 63.96310424804688 31.3954963684082 63.9630241394043 31.39062881469727 63.96293640136719 C 31.38405227661133 63.96281433105469 31.37862396240234 63.96271514892578 31.37205123901367 63.96259307861328 C 31.36781311035156 63.9625129699707 31.36175155639648 63.96239852905273 31.3575325012207 63.96231460571289 C 31.35222625732422 63.96221542358398 31.34795379638672 63.96213150024414 31.34264755249023 63.9620246887207 C 31.33840942382812 63.96194458007812 31.33250427246094 63.96182632446289 31.32827758789062 63.96174240112305 C 31.32297515869141 63.96163558959961 31.31919479370117 63.9615592956543 31.31389236450195 63.96144866943359 C 31.30839538574219 63.96133422851562 31.30167388916016 63.9611930847168 31.29617691040039 63.96107864379883 C 31.29087448120117 63.96096801757812 31.2855339050293 63.96085357666016 31.28022766113281 63.96073913574219 C 31.27491760253906 63.96062469482422 31.27125549316406 63.96054458618164 31.26595687866211 63.96042633056641 C 31.26129150390625 63.96032333374023 31.25601577758789 63.96020889282227 31.2513427734375 63.96010208129883 C 31.24774169921875 63.96002197265625 31.24105072021484 63.95986938476562 31.23746109008789 63.95978546142578 C 31.23323059082031 63.95969009399414 31.22767639160156 63.95956039428711 31.22344589233398 63.95946502685547 C 31.21732330322266 63.95932006835938 31.21204376220703 63.95919418334961 31.2059211730957 63.95904922485352 C 31.20169448852539 63.95894622802734 31.19408416748047 63.95876312255859 31.18985748291016 63.95866012573242 C 31.18455505371094 63.95853042602539 31.18099594116211 63.95844650268555 31.17569351196289 63.95831298828125 C 31.17146682739258 63.95820999145508 31.1656608581543 63.95806503295898 31.16142272949219 63.95795440673828 C 31.15612030029297 63.95782089233398 31.15240097045898 63.95772933959961 31.1471061706543 63.95759201049805 C 31.14180755615234 63.95745468139648 31.13477325439453 63.95727157592773 31.12948226928711 63.95713424682617 C 31.12417602539062 63.95699310302734 31.1193962097168 63.95686721801758 31.11409378051758 63.95672607421875 C 31.10879898071289 63.95658493041992 31.10429000854492 63.95646286010742 31.09898376464844 63.95631790161133 C 31.09431838989258 63.95619201660156 31.08947372436523 63.95605850219727 31.08479690551758 63.9559326171875 C 31.08057022094727 63.95581436157227 31.07468414306641 63.95565032958984 31.07044982910156 63.95553207397461 C 31.06515121459961 63.95538330078125 31.06190872192383 63.95529174804688 31.05662155151367 63.95513916015625 C 31.0494270324707 63.95493698120117 31.04400253295898 63.95478057861328 31.03682327270508 63.95457077026367 C 31.03108215332031 63.95440292358398 31.02763748168945 63.95430374145508 31.02190399169922 63.95413208007812 C 31.01786804199219 63.95401382446289 31.01194763183594 63.95383834838867 31.00791931152344 63.95371627807617 C 31.00325775146484 63.95357894897461 30.99850845336914 63.95343399047852 30.99383926391602 63.95329284667969 C 30.98980712890625 63.95317077636719 30.98389053344727 63.95298767089844 30.97986221313477 63.95286560058594 C 30.97456741333008 63.95270156860352 30.97126007080078 63.95259857177734 30.96596527099609 63.95243453979492 C 30.95878219604492 63.95220947265625 30.95471572875977 63.95207977294922 30.94753646850586 63.95185089111328 C 30.94330978393555 63.95171737670898 30.93654251098633 63.95149993896484 30.93231582641602 63.95136260986328 C 30.92765808105469 63.95121002197266 30.92220687866211 63.95103454589844 30.91754913330078 63.95088195800781 C 30.91289138793945 63.95072937011719 30.90832901000977 63.95058059692383 30.9036750793457 63.95042419433594 C 30.89901733398438 63.95027160644531 30.89410018920898 63.95010757446289 30.88943481445312 63.94994735717773 C 30.88307952880859 63.94973373413086 30.87721633911133 63.94953536987305 30.8708610534668 63.94931793212891 C 30.86620330810547 63.94915771484375 30.86086654663086 63.948974609375 30.85620498657227 63.94881439208984 C 30.85091781616211 63.94863128662109 30.84674453735352 63.948486328125 30.84146118164062 63.94829940795898 C 30.83679580688477 63.94813537597656 30.831787109375 63.94795989990234 30.82714080810547 63.94779205322266 C 30.82204437255859 63.94761276245117 30.81819152832031 63.94747543334961 30.81309127807617 63.94729232788086 C 30.80843353271484 63.94712448120117 30.80382919311523 63.94695663452148 30.79917907714844 63.9467887878418 C 30.79264068603516 63.94654846191406 30.78598785400391 63.94630432128906 30.77944183349609 63.94606018066406 C 30.77370834350586 63.94585037231445 30.77082443237305 63.94574356079102 30.76510620117188 63.94552993774414 C 30.76108169555664 63.94537734985352 30.75568771362305 63.94517517089844 30.75166320800781 63.94502258300781 C 30.74701309204102 63.94484710693359 30.74175262451172 63.94464492797852 30.73709869384766 63.94446563720703 C 30.73244476318359 63.94429016113281 30.72774124145508 63.94410705566406 30.72308731079102 63.94392776489258 C 30.7162971496582 63.94366455078125 30.71017074584961 63.94342422485352 30.70338439941406 63.94315719604492 C 30.69873428344727 63.94297409057617 30.6941032409668 63.94279098510742 30.68944931030273 63.94260406494141 C 30.68480682373047 63.94242095947266 30.67930221557617 63.94219970703125 30.67464828491211 63.94201278686523 C 30.66999816894531 63.94182586669922 30.66520309448242 63.94163131713867 30.66056060791016 63.94144058227539 C 30.65546035766602 63.94123458862305 30.65192413330078 63.94108963012695 30.64684295654297 63.94087982177734 C 30.64156341552734 63.9406623840332 30.63833999633789 63.94052886962891 30.6330680847168 63.94031143188477 C 30.62653350830078 63.94004058837891 30.62107849121094 63.93981170654297 30.61454772949219 63.93953704833984 C 30.6092643737793 63.93931198120117 30.60466766357422 63.93911743164062 30.59938049316406 63.93889236450195 C 30.59473419189453 63.93869400024414 30.58948516845703 63.93847274780273 30.5848388671875 63.93827056884766 C 30.5801887512207 63.93807220458984 30.57559967041016 63.93787002563477 30.57094955444336 63.93767166137695 C 30.56630706787109 63.93746948242188 30.56146621704102 63.937255859375 30.55680847167969 63.93705368041992 C 30.5526008605957 63.93686676025391 30.54723358154297 63.93663024902344 30.54301834106445 63.93644332885742 C 30.5364875793457 63.93615341186523 30.52873611450195 63.93580627441406 30.5222053527832 63.93551254272461 C 30.51649475097656 63.93525695800781 30.51452255249023 63.9351692199707 30.50881576538086 63.93490982055664 C 30.50416946411133 63.93469619750977 30.49944305419922 63.93448257446289 30.49479675292969 63.93426895141602 C 30.49014663696289 63.93405532836914 30.48514556884766 63.9338264465332 30.48050308227539 63.93360900878906 C 30.47478866577148 63.93334579467773 30.47220230102539 63.9332275390625 30.46648406982422 63.93296051025391 C 30.46121215820312 63.93271255493164 30.45466995239258 63.93240356445312 30.44940567016602 63.93215560913086 C 30.44413375854492 63.93190765380859 30.43873596191406 63.9316520690918 30.43347549438477 63.93140029907227 C 30.42820358276367 63.93114852905273 30.4242057800293 63.93095779418945 30.4189338684082 63.93070220947266 C 30.41428756713867 63.93047714233398 30.40946578979492 63.93024444580078 30.40483093261719 63.93001937866211 C 30.40125274658203 63.92984390258789 30.39496612548828 63.92953872680664 30.39139938354492 63.92936325073242 C 30.3871955871582 63.92915725708008 30.38130187988281 63.92886734008789 30.37709808349609 63.92866134643555 C 30.37100982666016 63.92835998535156 30.36618804931641 63.92811965942383 30.360107421875 63.92781448364258 C 30.35527801513672 63.92757415771484 30.34902954101562 63.9272575378418 30.34420013427734 63.9270133972168 C 30.33893966674805 63.92675018310547 30.33504486083984 63.92655181884766 30.32977676391602 63.9262809753418 C 30.32450866699219 63.9260139465332 30.32049942016602 63.92580795288086 30.31523895263672 63.925537109375 C 30.30997085571289 63.92526626586914 30.3062858581543 63.92507934570312 30.30102157592773 63.9248046875 C 30.29469299316406 63.92447662353516 30.28989410400391 63.92422485351562 30.28356552124023 63.92389678955078 C 30.27830123901367 63.92361831665039 30.27342224121094 63.92336273193359 30.26815795898438 63.9230842590332 C 30.26289367675781 63.92280578613281 30.25868988037109 63.92258071899414 30.25342178344727 63.92230224609375 C 30.2487907409668 63.92205429077148 30.24416732788086 63.92180633544922 30.23953628540039 63.92155838012695 C 30.23427581787109 63.9212760925293 30.23016357421875 63.92105484008789 30.22489929199219 63.92076873779297 C 30.22027206420898 63.92051696777344 30.21566390991211 63.92026519775391 30.21102142333984 63.92001342773438 C 30.20469665527344 63.9196662902832 30.19782257080078 63.91928863525391 30.19149780273438 63.91894149780273 C 30.18579864501953 63.91862487792969 30.18251800537109 63.91844177246094 30.17682266235352 63.91812515258789 C 30.17281341552734 63.91790390014648 30.16670227050781 63.91756057739258 30.16270065307617 63.91733551025391 C 30.15806198120117 63.91707611083984 30.15378570556641 63.91683578491211 30.14915466308594 63.91657257080078 C 30.14452743530273 63.91630935668945 30.1399040222168 63.91604995727539 30.13527297973633 63.91578674316406 C 30.13002014160156 63.91548538208008 30.12653732299805 63.91528701782227 30.12128067016602 63.91498565673828 C 30.11371231079102 63.91455078125 30.10808944702148 63.91422653198242 30.10051345825195 63.91378402709961 C 30.09481430053711 63.9134521484375 30.09286499023438 63.9133415222168 30.08717346191406 63.91300582885742 C 30.08317184448242 63.91277313232422 30.07672882080078 63.91239547729492 30.07272720336914 63.91215896606445 C 30.06766891479492 63.91186141967773 30.06399154663086 63.91164398193359 30.05892562866211 63.91134262084961 C 30.05449295043945 63.91107940673828 30.0491943359375 63.91076278686523 30.04475784301758 63.91049957275391 C 30.04475784301758 63.91049957275391 30.04468536376953 63.91049575805664 30.04468536376953 63.91049575805664 C 30.03662490844727 63.91001129150391 30.02716064453125 63.90944290161133 30.01908874511719 63.90895462036133 C 30.0146484375 63.90868377685547 30.00938034057617 63.90836334228516 30.00494766235352 63.9080924987793 C 30.00051116943359 63.90782165527344 29.99592208862305 63.90753936767578 29.99148178100586 63.90726852416992 C 29.98748016357422 63.90702056884766 29.98123931884766 63.90663528442383 29.97723770141602 63.90638732910156 C 29.97217178344727 63.90607452392578 29.96899032592773 63.90587615966797 29.96393203735352 63.90556335449219 C 29.95693588256836 63.90512466430664 29.94978332519531 63.90467834472656 29.94279861450195 63.90423965454102 C 29.93817520141602 63.90394592285156 29.93350601196289 63.90365219116211 29.92888259887695 63.90335845947266 C 29.923828125 63.90303802490234 29.92020034790039 63.90280914306641 29.91513824462891 63.90248489379883 C 29.91114044189453 63.90222930908203 29.90544509887695 63.90186309814453 29.90144729614258 63.90160751342773 C 29.89745712280273 63.90135192871094 29.89137649536133 63.90095901489258 29.88737106323242 63.90069961547852 C 29.88232040405273 63.90037155151367 29.87960815429688 63.90019607543945 29.87453842163086 63.89986419677734 C 29.86692428588867 63.89937210083008 29.86092376708984 63.89897537231445 29.85330581665039 63.89847564697266 C 29.84868621826172 63.89817428588867 29.84401702880859 63.89786529541016 29.83939743041992 63.89756011962891 C 29.83371734619141 63.89718246459961 29.83104705810547 63.89700698852539 29.82536697387695 63.89662551879883 C 29.82136535644531 63.89635848999023 29.81621932983398 63.89601516723633 29.81223297119141 63.89574813842773 C 29.80780029296875 63.89545059204102 29.80362319946289 63.89517211914062 29.79920959472656 63.89487075805664 C 29.79540252685547 63.89461517333984 29.79225540161133 63.89440155029297 29.78844451904297 63.89414596557617 C 29.78021240234375 63.89358520507812 29.77214050292969 63.89303588867188 29.76390075683594 63.89247131347656 C 29.75885009765625 63.89212417602539 29.75506973266602 63.89186477661133 29.75003051757812 63.89151763916016 C 29.74541473388672 63.89119720458984 29.74026870727539 63.89084243774414 29.73564529418945 63.89052200317383 C 29.73040771484375 63.89015579223633 29.72666931152344 63.88989639282227 29.72143173217773 63.88953018188477 C 29.71681213378906 63.88920974731445 29.71161270141602 63.88884353637695 29.70700073242188 63.88851928710938 C 29.70051574707031 63.8880615234375 29.69474029541016 63.88765716552734 29.68825531005859 63.8871955871582 C 29.68363952636719 63.88686752319336 29.6785888671875 63.88650894165039 29.67398071289062 63.88618087768555 C 29.66936492919922 63.88584899902344 29.66503524780273 63.88554000854492 29.66041946411133 63.88520812988281 C 29.65642929077148 63.88492202758789 29.6506233215332 63.88450241088867 29.64663696289062 63.88421630859375 C 29.64158630371094 63.88385009765625 29.63833236694336 63.88361740112305 29.63329315185547 63.88324737548828 C 29.62824249267578 63.88288116455078 29.62404632568359 63.88257598876953 29.61899566650391 63.88220596313477 C 29.61183547973633 63.88168334960938 29.60618591308594 63.88127136230469 29.59902191162109 63.88074111938477 C 29.59397506713867 63.88037109375 29.59019088745117 63.88008880615234 29.58514785766602 63.87971496582031 C 29.58116149902344 63.87942123413086 29.57568359375 63.87901306152344 29.57168960571289 63.87871551513672 C 29.56771087646484 63.87841796875 29.56194686889648 63.87798690795898 29.55795288085938 63.87768936157227 C 29.55229187011719 63.87726211547852 29.54936218261719 63.87704086303711 29.54369354248047 63.87661361694336 C 29.53678131103516 63.87609481811523 29.52984237670898 63.87556838989258 29.52293014526367 63.87504196166992 C 29.51832580566406 63.87469100952148 29.51422882080078 63.8743782043457 29.50962448120117 63.87402725219727 C 29.50458526611328 63.87364196777344 29.50073623657227 63.87334442138672 29.49568939208984 63.87295532226562 C 29.4910888671875 63.87260437011719 29.48662567138672 63.87225723266602 29.48201370239258 63.87190246582031 C 29.47803115844727 63.8715934753418 29.47207260131836 63.87113189697266 29.46809005737305 63.87081909179688 C 29.46368026733398 63.87047576904297 29.46052169799805 63.87023162841797 29.45609283447266 63.8698844909668 C 29.44850540161133 63.86929321289062 29.44180297851562 63.86876678466797 29.43424224853516 63.86816787719727 C 29.42963409423828 63.86780548095703 29.42475128173828 63.8674201965332 29.42014694213867 63.8670539855957 C 29.41616439819336 63.86673736572266 29.41069793701172 63.86630249023438 29.40672302246094 63.86598587036133 C 29.40274429321289 63.86566925048828 29.39708709716797 63.86521530151367 29.39310455322266 63.86489868164062 C 29.3880615234375 63.86449432373047 29.38384628295898 63.86415481567383 29.37881469726562 63.86375045776367 C 29.37359619140625 63.86332702636719 29.36738204956055 63.86282730102539 29.36215972900391 63.86240005493164 C 29.35712051391602 63.86199188232422 29.35003662109375 63.86141586303711 29.34500503540039 63.86100387573242 C 29.33996200561523 63.860595703125 29.33644485473633 63.86030578613281 29.3314094543457 63.85989379882812 C 29.32681655883789 63.85951614379883 29.32170486450195 63.85909271240234 29.31710433959961 63.85871505737305 C 29.3131217956543 63.8583869934082 29.30803680419922 63.85796356201172 29.30406188964844 63.85763549804688 C 29.29903030395508 63.85721588134766 29.29518508911133 63.85689544677734 29.2901496887207 63.85647583007812 C 29.28424835205078 63.85598373413086 29.27562713623047 63.85526275634766 29.26972961425781 63.85477066040039 C 29.26470565795898 63.85434722900391 29.26114273071289 63.85404586791992 29.256103515625 63.85361862182617 C 29.25106811523438 63.85319519042969 29.24741744995117 63.85288619995117 29.24238967895508 63.85245895385742 C 29.2384147644043 63.85211944580078 29.23269271850586 63.85163497924805 29.22871780395508 63.85129547119141 C 29.22430801391602 63.85091781616211 29.21989822387695 63.85054016113281 29.21548461914062 63.85016250610352 C 29.20388412475586 63.84916687011719 29.1933479309082 63.84825897216797 29.1817512512207 63.84725189208984 C 29.17796325683594 63.846923828125 29.17584991455078 63.84674072265625 29.17206573486328 63.84640884399414 C 29.16764831542969 63.84602737426758 29.16284561157227 63.84560775756836 29.15844345092773 63.84522247314453 C 29.15403747558594 63.8448371887207 29.14914703369141 63.84440612792969 29.14474105834961 63.84401702880859 C 29.13971328735352 63.84357833862305 29.13640213012695 63.84328460693359 29.13137435913086 63.84284210205078 C 29.12951278686523 63.84267425537109 29.1285400390625 63.84259033203125 29.12667846679688 63.84242630004883 C 29.11508560180664 63.84140014648438 29.10462951660156 63.84046936035156 29.09304046630859 63.83942794799805 C 29.09304046630859 63.83942794799805 29.09255981445312 63.83938598632812 29.09255981445312 63.83938598632812 C 29.08815765380859 63.83899307250977 29.08347320556641 63.83856964111328 29.07905960083008 63.83817291259766 C 29.07466125488281 63.83777618408203 29.06959533691406 63.83732223510742 29.0651969909668 63.83692169189453 C 29.06079483032227 63.83652496337891 29.05648422241211 63.83613204956055 29.05208206176758 63.83573150634766 C 29.04768371582031 63.83533096313477 29.04392623901367 63.83499145507812 29.03953170776367 63.83459091186523 C 29.03197479248047 63.83390045166016 29.02402114868164 63.83317184448242 29.0164680480957 63.83247756958008 C 29.01206970214844 63.83207321166992 29.00783538818359 63.83168029785156 29.00344085693359 63.83127593994141 C 28.99904251098633 63.83086776733398 28.99419021606445 63.83041763305664 28.98979187011719 63.83000946044922 C 28.98539352416992 63.8296012878418 28.98110580444336 63.82920455932617 28.97671127319336 63.82879257202148 C 28.97230911254883 63.82838439941406 28.96786117553711 63.82796859741211 28.96347045898438 63.82755661010742 C 28.95170593261719 63.82645416259766 28.93975830078125 63.8253288269043 28.92800521850586 63.82421493530273 C 28.92299270629883 63.82373809814453 28.91916275024414 63.8233757019043 28.91415405273438 63.82289886474609 C 28.91080474853516 63.82257843017578 28.90401840209961 63.82192993164062 28.90067672729492 63.82160949707031 C 28.8967170715332 63.82123184204102 28.89142608642578 63.82072448730469 28.88746643066406 63.82034301757812 C 28.88369369506836 63.81998062133789 28.87996292114258 63.81962203979492 28.87616729736328 63.81925582885742 C 28.86565399169922 63.81824111938477 28.85284042358398 63.81700134277344 28.84232711791992 63.81597518920898 C 28.83854675292969 63.81560897827148 28.83353805541992 63.81511688232422 28.82976531982422 63.81474685668945 C 28.82538604736328 63.8143196105957 28.82122421264648 63.81391143798828 28.81682968139648 63.81348037719727 C 28.81244277954102 63.81304550170898 28.80747222900391 63.81256103515625 28.8030891418457 63.81212615966797 C 28.79868316650391 63.81169128417969 28.79400253295898 63.81122970581055 28.78961181640625 63.810791015625 C 28.78961181640625 63.810791015625 28.78942108154297 63.81077575683594 28.78942108154297 63.81077575683594 C 28.78082656860352 63.80992126464844 28.77255249023438 63.80910110473633 28.76399230957031 63.80824279785156 C 28.75960159301758 63.80780410766602 28.75490188598633 63.80733108520508 28.75050735473633 63.80689239501953 C 28.74550247192383 63.80638885498047 28.74200820922852 63.80603790283203 28.73699951171875 63.8055305480957 C 28.7330436706543 63.80513381958008 28.72711181640625 63.80453491210938 28.72316360473633 63.80413436889648 C 28.71815872192383 63.80362701416016 28.71427536010742 63.80323028564453 28.70926284790039 63.8027229309082 C 28.69876480102539 63.80165481567383 28.6893310546875 63.80068969726562 28.6788330078125 63.79961395263672 C 28.67445373535156 63.79916381835938 28.67113494873047 63.79882049560547 28.66675186157227 63.79837036132812 C 28.66279983520508 63.7979621887207 28.65714263916016 63.79737854003906 28.65319442749023 63.79697036743164 C 28.64879608154297 63.79651641845703 28.64393997192383 63.79601287841797 28.63955688476562 63.79555511474609 C 28.63832092285156 63.79542922973633 28.63717269897461 63.79530715942383 28.63593673706055 63.79518127441406 C 28.62124633789062 63.79365158081055 28.6049919128418 63.79195022583008 28.59030532836914 63.79040145874023 C 28.5865364074707 63.79000473022461 28.58173370361328 63.78949356079102 28.57796859741211 63.78909683227539 C 28.57401275634766 63.78867721557617 28.56879043579102 63.78812408447266 28.56483840942383 63.78770446777344 C 28.55984115600586 63.78717422485352 28.5560302734375 63.78676605224609 28.55102920532227 63.78623199462891 C 28.54664611816406 63.7857666015625 28.54212951660156 63.78528213500977 28.53775024414062 63.78481292724609 C 28.53775024414062 63.78481292724609 28.53728485107422 63.78476333618164 28.53728485107422 63.78476333618164 C 28.52871322631836 63.78384399414062 28.52068710327148 63.78298187255859 28.51208877563477 63.78205490112305 C 28.50770950317383 63.78158187866211 28.50330352783203 63.78110504150391 28.49893951416016 63.78063201904297 C 28.49455642700195 63.78015518188477 28.48970413208008 63.77962875366211 28.48533248901367 63.77915191650391 C 28.48095703125 63.77867889404297 28.47672653198242 63.77821731567383 28.47234725952148 63.77773666381836 C 28.46797180175781 63.77725982666016 28.4643669128418 63.7768669128418 28.45999145507812 63.77638626098633 C 28.44846725463867 63.77512359619141 28.43673324584961 63.77383041381836 28.42521286010742 63.77255630493164 C 28.42521286010742 63.77255630493164 28.42439270019531 63.77246475219727 28.42439270019531 63.77246475219727 C 28.42000961303711 63.77198028564453 28.41486740112305 63.77140808105469 28.41050720214844 63.77092361450195 C 28.40570449829102 63.77038955688477 28.40285491943359 63.77007293701172 28.39802551269531 63.76953506469727 C 28.39321517944336 63.76899719238281 28.39091491699219 63.76874160766602 28.38614654541016 63.76820755004883 C 28.3693962097168 63.76633071899414 28.35437393188477 63.7646369934082 28.3376350402832 63.76273727416992 C 28.33280181884766 63.76219177246094 28.32986831665039 63.76185607910156 28.32506942749023 63.76131057739258 C 28.32027053833008 63.76076507568359 28.31737899780273 63.76043319702148 28.31257629394531 63.75988388061523 C 28.31195831298828 63.75981521606445 28.31035614013672 63.7596321105957 28.30973815917969 63.75955963134766 C 28.28986358642578 63.75728607177734 28.26882934570312 63.75485992431641 28.24896621704102 63.75254821777344 C 28.24896621704102 63.75254821777344 28.2486572265625 63.75251388549805 28.2486572265625 63.75251388549805 C 28.24386215209961 63.75195693969727 28.23995971679688 63.75149917602539 28.23514175415039 63.75093841552734 C 28.23096084594727 63.75045013427734 28.22804641723633 63.7501106262207 28.2238655090332 63.74961853027344 C 28.2238655090332 63.74961853027344 28.22323226928711 63.74954605102539 28.22323226928711 63.74954605102539 C 28.20232772827148 63.74709701538086 28.1827392578125 63.74478530883789 28.16184616088867 63.74229431152344 C 28.16123199462891 63.74222183227539 28.16099166870117 63.74219512939453 28.16037750244141 63.74212265014648 C 28.12694549560547 63.73814010620117 28.09415817260742 63.73418045043945 28.06076049804688 63.73009490966797 C 28.06076049804688 63.73009490966797 28.06069564819336 63.73008728027344 28.06069564819336 63.73008728027344 C 28.03982162475586 63.72753524780273 28.01908111572266 63.7249755859375 27.99821853637695 63.72238159179688 C 27.99821853637695 63.72238159179688 27.99809265136719 63.72236633300781 27.99809265136719 63.72236633300781 C 27.99330520629883 63.72177124023438 27.98999786376953 63.72135925292969 27.98521041870117 63.72076416015625 C 27.96435165405273 63.71816253662109 27.94391250610352 63.71559143066406 27.92306518554688 63.71295166015625 C 27.92306518554688 63.71295166015625 27.92306518554688 63.71294784545898 27.92306518554688 63.71294784545898 C 27.91828155517578 63.71234512329102 27.9145622253418 63.71187210083008 27.90978240966797 63.71126556396484 C 27.88477325439453 63.70808410644531 27.86083984375 63.70501327514648 27.83584594726562 63.70177459716797 C 27.83584594726562 63.70177459716797 27.83539199829102 63.70171737670898 27.83539199829102 63.70171737670898 C 27.83122634887695 63.70117950439453 27.82757186889648 63.70070266723633 27.82341003417969 63.70016098022461 C 27.82341003417969 63.70016098022461 27.82268142700195 63.70006942749023 27.82268142700195 63.70006942749023 C 27.81851577758789 63.69952774047852 27.81494903564453 63.69906234741211 27.81078338623047 63.69852066040039 C 27.81078338623047 63.69852066040039 27.81008529663086 63.69842910766602 27.81008529663086 63.69842910766602 C 27.78509902954102 63.69517135620117 27.7606315612793 63.69195556640625 27.73566436767578 63.68864059448242 C 27.73566436767578 63.68864059448242 27.73556518554688 63.68862915039062 27.73556518554688 63.68862915039062 C 27.68562316894531 63.68199920654297 27.6366081237793 63.67537689208984 27.58674240112305 63.66851806640625 C 27.58197021484375 63.66786193847656 27.57863235473633 63.66740417480469 27.57386779785156 63.66674423217773 C 27.56906890869141 63.66608810424805 27.56583404541016 63.6656379699707 27.56106948852539 63.66497802734375 C 27.56045913696289 63.66489410400391 27.56139755249023 63.66502380371094 27.56078338623047 63.66493988037109 C 27.54416656494141 63.66263961791992 27.52888870239258 63.66051483154297 27.51227951049805 63.6581916809082 C 27.50749969482422 63.65752792358398 27.5039176940918 63.65702056884766 27.49915313720703 63.65635299682617 C 27.49435806274414 63.65568161010742 27.49114990234375 63.65522766113281 27.48638916015625 63.65455627441406 C 27.48638916015625 63.65455627441406 27.48598098754883 63.65449905395508 27.48598098754883 63.65449905395508 C 27.46107482910156 63.65099334716797 27.43662261962891 63.64752578735352 27.4117317199707 63.64396286010742 C 27.4117317199707 63.64396286010742 27.41132736206055 63.64390182495117 27.41132736206055 63.64390182495117 C 18.89267730712891 62.42445373535156 11.45800018310547 57.84917449951172 6.488513946533203 51.29920196533203 L 14.45489501953125 45.25464248657227 C 18.65665817260742 50.79231262207031 25.04582214355469 53.96833038330078 31.98416900634766 53.96833038330078 C 44.10627746582031 53.96833038330078 53.96833038330078 44.10627746582031 53.96833038330078 31.98416900634766 C 53.96833038330078 19.862060546875 44.10627746582031 10.00000381469727 31.98416900634766 10.00000381469727 L 31.98416900634766 3.814697265625e-06 C 31.98416900634766 3.814697265625e-06 31.98416900634766 3.814697265625e-06 31.98416900634766 3.814697265625e-06 Z" stroke="none" fill="#40c967"/>
    </g>
    <g id="Ellipse_135" data-name="Ellipse 135" transform="translate(17.518 17.518)" fill="#fff" stroke="#fff" stroke-width="1">
      <circle cx="27.767" cy="27.767" r="27.767" stroke="none"/>
      <circle cx="27.767" cy="27.767" r="27.267" fill="none"/>
    </g>
    <g id="noun-doctor-giving-injection-685660" transform="translate(30.715 29.544)">
      <path id="Path_620" data-name="Path 620" d="M171.347,393.385l.1,1.9a11.133,11.133,0,0,0,.34-2.479,3.846,3.846,0,0,0-.067-.77h-4.154a3.846,3.846,0,0,0-.067.768,11.137,11.137,0,0,0,.341,2.482l.1-1.905Z" transform="translate(-163.301 -370)" fill="#6e6e6e"/>
      <path id="Path_621" data-name="Path 621" d="M186.58,495.59q.094.282.2.583h1.746q.1-.3.2-.583Z" transform="translate(-181.312 -467.729)" fill="#6e6e6e"/>
      <path id="Path_622" data-name="Path 622" d="M174.964,377.229a1.946,1.946,0,0,0-.493-.139,7.12,7.12,0,0,0-1.17-.077h-.056a6.463,6.463,0,0,0-1.275.1,1.2,1.2,0,0,0-.531.21.426.426,0,0,0-.092.11H175.2a.46.46,0,0,0-.237-.2Z" transform="translate(-166.935 -355.817)" fill="#6e6e6e"/>
      <path id="Path_623" data-name="Path 623" d="M155.645,63.47a3.16,3.16,0,1,1-3.795-2.361,3.16,3.16,0,0,1,3.795,2.361" transform="translate(-146.228 -57.595)" fill="#6e6e6e"/>
      <path id="Path_624" data-name="Path 624" d="M110.348,189.093a11.959,11.959,0,0,1-1.224-.065,1.343,1.343,0,0,1-1.2-1.409,9.126,9.126,0,0,1-2.431-.864l.135-.287a.539.539,0,0,0-.257-.717l-.527-.249a.539.539,0,0,0-.717.257l-.025.053a6.371,6.371,0,0,1-.865-.9,4.244,4.244,0,0,1-.256-.361c-.025-.04-.042-.069-.051-.085l-.006-.009a1.071,1.071,0,0,0-.437-.449,1.034,1.034,0,0,0-.676-.251h-5.2a1.036,1.036,0,0,0-.361.066,1.072,1.072,0,0,0-.58.191,7.338,7.338,0,0,0-.88.748,7.067,7.067,0,0,0-1.453,2,4.719,4.719,0,0,0-.467,2.007c0,.09,0,.182.009.274a4.692,4.692,0,0,0,.764,2.239,8.542,8.542,0,0,0,2.482,2.4,1.077,1.077,0,0,0,1.2-1.785,6.432,6.432,0,0,1-1.873-1.774,2.593,2.593,0,0,1-.415-1.079,2.3,2.3,0,0,1-.019-.274,2.935,2.935,0,0,1,.548-1.6v2.612c.034.063.071.126.112.191a6.22,6.22,0,0,0,1.8,1.7,1.346,1.346,0,0,1-1.5,2.231,10.774,10.774,0,0,1-1.582-1.283,4.064,4.064,0,0,0-.438.653,4.9,4.9,0,0,0-.349.826,6.911,6.911,0,0,0-.308,2.141,23.277,23.277,0,0,0,1.711,7.52,1.749,1.749,0,0,0,3.289-1.192,20.21,20.21,0,0,1-1.5-6.329,2.993,2.993,0,0,1,.2-1.225.778.778,0,0,1,.2-.286,1.434,1.434,0,0,1,.651-.269,6.92,6.92,0,0,1,1.361-.1,7.476,7.476,0,0,1,1.241.081,2.211,2.211,0,0,1,.573.166.729.729,0,0,1,.368.341,2.75,2.75,0,0,1,.231,1.295,20.209,20.209,0,0,1-1.5,6.329,1.749,1.749,0,1,0,3.289,1.192h0a23.262,23.262,0,0,0,1.71-7.52,6.392,6.392,0,0,0-.513-2.679c-.014-.032-.031-.063-.046-.094a4.166,4.166,0,0,0-1.714-1.849v-4.042c.1.078.194.157.3.236l.007.005-.179.378a.539.539,0,0,0,.257.717l.527.249a.539.539,0,0,0,.717-.257l.094-.2a12.672,12.672,0,0,0,5.888,1.322h.024c.114,0,.226,0,.339,0a1.075,1.075,0,0,0,1.056-1.051,9.11,9.11,0,0,1-1.518.123Zm-6.116-.307a.269.269,0,0,1-.358.128l-.527-.249a.269.269,0,0,1-.128-.358l1.149-2.433a.269.269,0,0,1,.358-.128l.527.249a.269.269,0,0,1,.128.358Z" transform="translate(-92.87 -173.428)" fill="#6e6e6e"/>
      <path id="Path_625" data-name="Path 625" d="M424.661,2.207A3.027,3.027,0,1,1,420.926.116a3.027,3.027,0,0,1,3.735,2.091" transform="translate(-400.402 -0.002)" fill="#6e6e6e"/>
      <path id="Path_626" data-name="Path 626" d="M361.036,139.407h.055a1.682,1.682,0,0,0,1.681-1.627l.183-5.64c1.793-.153,3.351-.515,3.407-1.026.827-7.5-1.259-16.406-5.254-16.65-1.621-.1-1.914.135-2.265.4a3.191,3.191,0,0,0-.887,1.781c-.138.287-.3.594-.479.889a5.02,5.02,0,0,1-.859,1.1.974.974,0,0,1-.594.317c-.091,0-.243-.016-.572-.325a6.378,6.378,0,0,1-1.19-1.87,1.073,1.073,0,0,0-.643-.569l.006.012.079.174.11.246.189.421.11.245-.245.11-.84.378-.246.11-.111-.246-.189-.421-.078-.174-.11-.246h0a1.073,1.073,0,0,0,.017.866,8.373,8.373,0,0,0,1.645,2.51,3.323,3.323,0,0,0,1.279.8,4.725,4.725,0,0,0,2.293-.539,3.106,3.106,0,0,0,1.152-1.153,4.875,4.875,0,0,0,.592-2.275c0-.037,0-.057,0-.064a1.348,1.348,0,0,1,1.281-1.4h.064a1.343,1.343,0,0,1,1.343,1.282c0,.013,0,.078,0,.183a7.721,7.721,0,0,1-.427,2.478,5.979,5.979,0,0,1-2.673,3.291,6.308,6.308,0,0,1-1.28.55c0,.007,0,.016,0,.023.069,2.228-.776,7.146-.017,8.233a3.266,3.266,0,0,0,2.024.584l-.179,5.506a1.682,1.682,0,0,0,1.626,1.736Zm-1.582-11.862-.161-.56,2.277-.558.09.381Z" transform="translate(-337.63 -108.007)" fill="#6e6e6e"/>
      <path id="Path_627" data-name="Path 627" d="M322.785,315.878v-2.355h.65v-12H316.91v12h.606v2.355h.942v-2.355h3.386v2.355Z" transform="translate(-304.315 -284.576)" fill="#6e6e6e"/>
      <path id="Path_628" data-name="Path 628" d="M329.621,74.867l.189.42-.307.138.189.42.84-.378-.189-.42-.307.138-.189-.42.307-.138-1.017-2.262-.307.138-1-2.23-.227.1,1,2.229-.307.138L329.314,75Z" transform="translate(-314.405 -66.323)" fill="#6e6e6e"/>
      <path id="Path_629" data-name="Path 629" d="M373.639,142.369a7.47,7.47,0,0,0,.412-2.39c0-.1,0-.155,0-.17a1.076,1.076,0,0,0-2.15.1h0s0,.029,0,.073a5.14,5.14,0,0,1-.63,2.417,3.357,3.357,0,0,1-1.251,1.25,5.045,5.045,0,0,1-2.553.578,9.373,9.373,0,0,1-.974-.053,1.076,1.076,0,1,0-.222,2.141,11.683,11.683,0,0,0,1.2.064h.01a7.184,7.184,0,0,0,3.611-.861,5.717,5.717,0,0,0,2.552-3.146Z" transform="translate(-349.988 -130.981)" fill="#6e6e6e"/>
    </g>
  </g>
</svg>
