<svg xmlns="http://www.w3.org/2000/svg" width="12.929" height="12.929" viewBox="0 0 12.929 12.929">
  <g id="noun-uploading-3557917" transform="translate(-170.8 -100.799)">
    <path id="Path_31739" data-name="Path 31739" d="M350,100.8v1.616a4.848,4.848,0,0,1,4.848,4.848h1.616A6.464,6.464,0,0,0,350,100.8Z" transform="translate(-172.735)"/>
    <path id="Path_31740" data-name="Path 31740" d="M172.416,258.41a.808.808,0,1,1-.808-.808.808.808,0,0,1,.808.808" transform="translate(0 -151.147)"/>
    <path id="Path_31741" data-name="Path 31741" d="M194.39,179.324a.808.808,0,1,1-1.1.3.808.808,0,0,1,1.1-.3" transform="translate(-21.571 -75.588)"/>
    <path id="Path_31742" data-name="Path 31742" d="M251.416,124.146a.811.811,0,1,1-1.107-.3.811.811,0,0,1,1.107.3" transform="translate(-76.249 -22.113)"/>
    <path id="Path_31743" data-name="Path 31743" d="M463.237,336.124a.808.808,0,1,1-1.1.3.808.808,0,0,1,1.1-.3" transform="translate(-280.719 -226.732)"/>
    <path id="Path_31744" data-name="Path 31744" d="M408.833,394.007a.811.811,0,1,1-1.107-.3.811.811,0,0,1,1.107.3" transform="translate(-227.987 -282.239)"/>
    <path id="Path_31745" data-name="Path 31745" d="M329.22,415.206a.808.808,0,1,1-.808-.808.808.808,0,0,1,.808.808" transform="translate(-151.148 -302.286)"/>
    <path id="Path_31746" data-name="Path 31746" d="M250.388,392.065a.808.808,0,1,1-1.1.3.808.808,0,0,1,1.1-.3" transform="translate(-75.549 -280.655)"/>
    <path id="Path_31747" data-name="Path 31747" d="M194.747,336.379a.808.808,0,1,1-1.1-.3.808.808,0,0,1,1.1.3" transform="translate(-21.629 -226.692)"/>
    <path id="Path_31748" data-name="Path 31748" d="M285.225,201.6l-2.424,2.424h1.616v3.232h1.616v-3.232h1.616Z" transform="translate(-107.961 -97.165)"/>
  </g>
</svg>
