<svg xmlns="http://www.w3.org/2000/svg" width="16.178" height="19.276" viewBox="0 0 16.178 19.276">
  <g id="noun-verify-1055419" transform="translate(0 -0.001)">
    <path id="Path_31723" data-name="Path 31723" d="M225.42,115.654c-.022-.569-.016-1.139-.011-1.692,0-.248.005-.5.005-.744v-.825c0-.69,0-1.4,0-2.109-.878-.214-1.764-.436-2.622-.65-.7-.176-1.425-.356-2.137-.532a.388.388,0,0,0-.164,0c-.7.172-1.411.35-2.1.522-.873.219-1.775.444-2.668.661l0,.591c.008,1.589.017,3.232-.006,4.851a4.471,4.471,0,0,0,1.075,3.015,9.87,9.87,0,0,0,3.772,2.7,10.37,10.37,0,0,0,3.439-2.313,4.6,4.6,0,0,0,1.408-3.469Zm-1.682-2.3q-.644.827-1.289,1.653-1.046,1.348-2.09,2.7c-.393.505-.71.5-1.083-.012q-.927-1.269-1.854-2.538a.53.53,0,1,1,.776-.72c.453.393.9.789,1.357,1.183.073.063.151.12.3.238a1.447,1.447,0,0,1,.166-.262q1.43-1.44,2.87-2.869a.906.906,0,0,1,.375-.237.457.457,0,0,1,.545.242.533.533,0,0,1-.073.624Z" transform="translate(-212.485 -105.626)" fill="#76d21f"/>
    <path id="Path_31724" data-name="Path 31724" d="M142.184,23.115c-.013-.348-.017-.7-.017-1.06h.013V19.4c0-.87,0-1.769.006-2.647a2.037,2.037,0,0,0-1.634-2.113c-1.008-.244-2.037-.5-3.031-.75l-.443-.111c-.752-.188-1.53-.383-2.3-.571a2.881,2.881,0,0,0-1.353,0c-.841.206-1.679.416-2.458.611-.965.242-2.166.542-3.31.818a2.064,2.064,0,0,0-1.646,2.135l0,.946c.009,1.82.02,3.7-.007,5.544a7.657,7.657,0,0,0,1.809,5.1,13.92,13.92,0,0,0,5.4,3.87,2.175,2.175,0,0,0,.863.174,2.3,2.3,0,0,0,.9-.183,14.515,14.515,0,0,0,4.881-3.283,7.778,7.778,0,0,0,2.313-5.818Zm-3.679,4.61a13.46,13.46,0,0,1-4.405,2.981,12.811,12.811,0,0,1-4.839-3.477,5.72,5.72,0,0,1-1.376-3.859c.03-2.154.019-4.338.008-6.451l0-.6c1.126-.274,2.259-.557,3.36-.833.918-.23,1.866-.467,2.8-.7a.3.3,0,0,1,.114,0c.926.228,1.868.464,2.778.692,1.1.276,2.237.56,3.368.836-.006.874-.005,1.753,0,2.608v1.115c0,.329,0,.658-.006.987-.007.734-.015,1.493.014,2.252a5.893,5.893,0,0,1-1.809,4.445Z" transform="translate(-126.011 -13.123)" fill="#76d21f"/>
  </g>
</svg>
